<svg id="Layer_1" data-name="Layer 1" xmlns="http://www.w3.org/2000/svg" xmlns:xlink="http://www.w3.org/1999/xlink" viewBox="0 0 52.68 39.81"><defs><style>.cls-1{fill:url(#linear-gradient);}</style><linearGradient id="linear-gradient" x1="7.91" y1="7.46" x2="44.98" y2="38.57" gradientUnits="userSpaceOnUse"><stop offset="0" stop-color="#2e73df"/><stop offset="1" stop-color="#b47d57"/></linearGradient></defs><title>footer_1</title><path class="cls-1" d="M50.18,32.24a1.25,1.25,0,0,1-1,.83c-3.41.64-7.41-.49-11.27-3.26a2.5,2.5,0,0,0-1-.26,16.42,16.42,0,0,0,.8-1.8,3.46,3.46,0,0,1,1.31.52,16.27,16.27,0,0,0,6.44,2.91l1.55.27L46,30.28a5.36,5.36,0,0,1-1.5-3.05A4.11,4.11,0,0,1,45.69,24l.13-.12a11.52,11.52,0,0,0,4.94-9.11c0-7.09-7.5-12.86-16.72-12.86A20.11,20.11,0,0,0,23.61,4.74c-.82-.23-1.66-.43-2.51-.58A21.46,21.46,0,0,1,34,0C44.32,0,52.68,6.63,52.68,14.78c0,4-2,7.76-5.66,10.63a2.18,2.18,0,0,0-.63,1.64c.12,1.32,1.54,2.55,2.91,3.59.25.19.43.33.53.43A1.15,1.15,0,0,1,50.18,32.24Zm-12.9-10.9c0,8.15-8.36,14.78-18.64,14.78-.44,0-.87,0-1.34,0h-.09s-.25,0-.57,0a3.86,3.86,0,0,0-1.87.32C10.94,39.14,7,40.28,3.5,39.62a1.23,1.23,0,0,1-1-.82,1.14,1.14,0,0,1,.35-1.18c.1-.09.28-.24.54-.43.9-.68,2.77-2.09,2.9-3.58a2.23,2.23,0,0,0-.71-1.71A13.37,13.37,0,0,1,0,21.34C0,13.19,8.36,6.56,18.64,6.56S37.28,13.19,37.28,21.34Zm-1.92,0c0-7.09-7.5-12.86-16.72-12.86S1.92,14.25,1.92,21.34a11.52,11.52,0,0,0,4.94,9.12l.12.11a4.11,4.11,0,0,1,1.22,3.21,5.37,5.37,0,0,1-1.5,3.05L5.65,38l1.55-.27a16.31,16.31,0,0,0,6.45-2.91,5.18,5.18,0,0,1,3-.68h.68c.44,0,.87,0,1.32,0C27.86,34.2,35.36,28.43,35.36,21.34Zm-22.75,0a2,2,0,1,0-2,2A2,2,0,0,0,12.6,21.34Zm8.35,0a2,2,0,1,0-2,2A2,2,0,0,0,21,21.34Zm8.35,0a2,2,0,1,0-2,2A2,2,0,0,0,29.3,21.34Z"/></svg>